<svg viewBox="0 0 1024 1024" xmlns="http://www.w3.org/2000/svg" xml:space="preserve" style="fill-rule:evenodd;clip-rule:evenodd;stroke-linejoin:round;stroke-miterlimit:2">
<style>
  path {
    fill: #030712;
  }
  @media (prefers-color-scheme: dark) {
    path { fill: #ffffff; }
  }
</style>
<path d="M790.505 730.692c-12.877 0-25.961-4.154-39.252-12.461-13.292-8.308-24.092-19.107-32.399-32.399v39.875h-78.505V289.57h84.735v149.533c8.308-8.723 18.588-15.784 30.841-21.184 12.254-5.4 23.988-8.1 35.203-8.1h43.614c24.091 0 45.379 5.088 63.863 15.265s32.814 24.611 42.99 43.302c10.177 18.692 15.265 40.291 15.265 64.798v71.028c0 24.922-5.192 46.937-15.576 66.044s-24.922 33.956-43.614 44.548c-18.691 10.592-40.083 15.888-64.174 15.888h-42.991Zm33.022-74.144c14.538 0 26.272-5.399 35.202-16.199 8.931-10.8 13.396-24.922 13.396-42.368v-58.567c0-16.614-4.361-30.01-13.084-40.187-8.723-10.176-20.146-15.264-34.268-15.264h-38.629c-16.615 0-30.53 5.815-41.745 17.445-11.215 11.63-17.653 26.999-19.315 46.106v53.583c2.908 16.614 9.658 30.01 20.25 40.187 10.591 10.176 23.156 15.264 37.694 15.264h40.499Z" style="fill-rule:nonzero" transform="translate(-1259.21 -619.412) scale(2.21789)"/></svg>
